<mxfile host="app.diagrams.net" modified="2021-04-29T18:10:53.725Z" agent="5.0 (Windows NT 10.0; Win64; x64) AppleWebKit/537.36 (KHTML, like Gecko) Chrome/90.0.4430.93 Safari/537.36" etag="rNz6TO8yUGqePevvX7vv" version="14.6.9" type="github">
  <diagram id="RxhyWmj_yQf2N7B4q3ga" name="Page-1">
    <mxGraphModel dx="868" dy="393" grid="1" gridSize="10" guides="1" tooltips="1" connect="1" arrows="1" fold="1" page="1" pageScale="1" pageWidth="1169" pageHeight="1654" math="0" shadow="0">
      <root>
        <mxCell id="0" />
        <mxCell id="1" parent="0" />
        <mxCell id="4Iq60C_jrjjJ6NNtNDXa-1" value="" style="rounded=0;whiteSpace=wrap;html=1;" vertex="1" parent="1">
          <mxGeometry x="280" y="40" width="240" height="400" as="geometry" />
        </mxCell>
        <mxCell id="4Iq60C_jrjjJ6NNtNDXa-2" value="" style="rounded=1;whiteSpace=wrap;html=1;" vertex="1" parent="1">
          <mxGeometry x="280" y="40" width="240" height="60" as="geometry" />
        </mxCell>
        <mxCell id="4Iq60C_jrjjJ6NNtNDXa-3" value="Bharat Buy" style="text;html=1;strokeColor=none;fillColor=none;align=center;verticalAlign=middle;whiteSpace=wrap;rounded=0;" vertex="1" parent="1">
          <mxGeometry x="280" y="60" width="240" height="20" as="geometry" />
        </mxCell>
        <mxCell id="4Iq60C_jrjjJ6NNtNDXa-4" value="" style="rounded=0;whiteSpace=wrap;html=1;" vertex="1" parent="1">
          <mxGeometry x="280" y="140" width="240" height="100" as="geometry" />
        </mxCell>
        <mxCell id="4Iq60C_jrjjJ6NNtNDXa-5" value="" style="endArrow=none;html=1;entryX=0.5;entryY=0;entryDx=0;entryDy=0;exitX=0.25;exitY=1;exitDx=0;exitDy=0;" edge="1" parent="1" source="4Iq60C_jrjjJ6NNtNDXa-4" target="4Iq60C_jrjjJ6NNtNDXa-4">
          <mxGeometry width="50" height="50" relative="1" as="geometry">
            <mxPoint x="420" y="250" as="sourcePoint" />
            <mxPoint x="470" y="200" as="targetPoint" />
          </mxGeometry>
        </mxCell>
        <mxCell id="4Iq60C_jrjjJ6NNtNDXa-6" value="" style="image;image=img/lib/atlassian/Atlassian_Logo.svg;" vertex="1" parent="1">
          <mxGeometry x="280" y="157" width="66" height="66" as="geometry" />
        </mxCell>
        <mxCell id="4Iq60C_jrjjJ6NNtNDXa-7" value="&lt;font color=&quot;#cc0000&quot;&gt;Whatsapp&lt;/font&gt;" style="rounded=1;html=1;shadow=0;dashed=0;whiteSpace=wrap;fontSize=10;fillColor=#333333;align=center;strokeColor=#333333;fontColor=#666666;" vertex="1" parent="1">
          <mxGeometry x="390" y="190" width="105.5" height="16.88" as="geometry" />
        </mxCell>
        <mxCell id="4Iq60C_jrjjJ6NNtNDXa-8" value="" style="rounded=0;whiteSpace=wrap;html=1;" vertex="1" parent="1">
          <mxGeometry x="280" y="280" width="240" height="100" as="geometry" />
        </mxCell>
        <mxCell id="4Iq60C_jrjjJ6NNtNDXa-9" value="" style="endArrow=none;html=1;entryX=0.5;entryY=0;entryDx=0;entryDy=0;exitX=0.25;exitY=1;exitDx=0;exitDy=0;" edge="1" parent="1">
          <mxGeometry width="50" height="50" relative="1" as="geometry">
            <mxPoint x="330" y="380" as="sourcePoint" />
            <mxPoint x="390" y="280" as="targetPoint" />
          </mxGeometry>
        </mxCell>
        <mxCell id="4Iq60C_jrjjJ6NNtNDXa-10" value="" style="image;image=img/lib/atlassian/Atlassian_Logo.svg;" vertex="1" parent="1">
          <mxGeometry x="280" y="297" width="66" height="66" as="geometry" />
        </mxCell>
        <mxCell id="4Iq60C_jrjjJ6NNtNDXa-11" value="&lt;font color=&quot;#cc0000&quot;&gt;Mail&lt;/font&gt;" style="rounded=1;html=1;shadow=0;dashed=0;whiteSpace=wrap;fontSize=10;fillColor=#333333;align=center;strokeColor=#333333;fontColor=#666666;" vertex="1" parent="1">
          <mxGeometry x="390" y="321.56" width="105.5" height="16.88" as="geometry" />
        </mxCell>
      </root>
    </mxGraphModel>
  </diagram>
</mxfile>
